# www.textures.com
vn -0.769454 -0.534767 0.349233
v -2.395955 -1.320679 0.947085
vn -0.106193 -0.538364 -0.835995
v -0.013965 -2.095733 0.645562
vn -0.919996 0.057316 0.387713
v -3.720912 -0.126194 0.702474
vn -0.461955 -0.833677 0.302623
v -2.074573 -1.623281 1.167362
vn -0.073414 -0.391756 -0.917135
v 0.286862 -1.578481 0.531853
vn 0.797469 0.521489 -0.303467
v 2.503254 1.053256 1.107012
vn -0.240047 -0.905271 0.350518
v -1.054653 -1.868585 1.041072
vn -0.003742 -0.029794 -0.999549
v 1.697928 0.141331 0.168826
vn 0.016010 -0.372853 0.927752
v 1.052475 -1.376612 1.915231
vn -0.467720 -0.294698 -0.833301
v -2.947515 -0.751870 0.247483
vn 0.638078 0.736055 -0.226008
v 1.747100 2.196071 0.754110
vn -0.863773 -0.427583 0.266588
v -2.487112 -0.707614 1.288520
vn 0.089648 0.233563 0.968200
v 1.704133 1.072138 1.732129
vn -0.135576 -0.654448 -0.743853
v -1.981043 -1.691471 0.412766
vn -0.070203 0.150325 -0.986141
v 1.063521 0.802095 0.138190
vn -0.616113 0.605761 -0.503447
v -2.797669 0.825982 0.493456
vn -0.797047 0.519328 0.308246
v -2.501136 0.884173 1.123760
vn -0.036532 -0.974085 -0.223213
v 0.862184 -2.546166 0.883155
vn -0.886313 0.028589 0.462203
v -2.926368 0.038695 1.276654
vn -0.099239 0.286600 0.952897
v -0.104168 0.239391 2.129656
vn -0.679295 -0.582292 0.446647
v -2.922971 -0.648339 0.806009
vn 0.805192 -0.523887 -0.277863
v 3.048803 -0.958827 0.749797
vn 0.349069 0.266097 -0.898523
v 1.958049 1.062267 0.123705
vn -0.601873 0.312639 0.734851
v -2.752271 0.077839 1.792092
vn 0.888323 0.329115 -0.320259
v 2.775298 0.334778 0.854403
vn 0.907096 0.243769 0.343153
v 3.008565 -0.144536 1.662859
vn -0.528939 0.553840 0.643028
v -1.972127 1.532296 1.505427
vn -0.049161 0.193677 0.979833
v -1.453261 1.025142 1.669274
vn 0.631910 0.255221 -0.731814
v 2.365924 0.251117 0.182142
vn 0.212273 0.115015 0.970418
v 2.408522 0.441518 1.712368
vn 0.016596 -0.159783 0.987013
v 0.705714 -0.665950 2.285861
vn -0.010494 -0.205880 -0.978521
v 0.647238 -1.066431 0.142922
vn 0.161736 -0.094475 0.982301
v 1.846555 -1.012985 2.012629
vn -0.011979 0.297923 0.954515
v 0.605243 1.245924 1.772355
vn -0.150074 -0.470808 0.869378
v -2.067154 -0.951968 2.013203
vn -0.092942 0.094180 0.991207
v -1.850922 -0.394495 2.144138
vn -0.017654 -0.022086 -0.999600
v -1.195159 -0.739564 0.004459
vn 0.361582 -0.620847 -0.695563
v 1.507529 -1.952644 0.394788
vn -0.182343 0.455258 0.871488
v -1.568896 1.770391 1.495334
vn -0.031726 0.692734 0.720495
v 0.158211 2.097525 1.468608
vn -0.105165 0.263090 0.959022
v -0.206657 1.102591 1.629780
vn 0.716129 0.575637 0.394718
v 2.000558 1.721195 1.505017
vn -0.228166 0.973494 -0.015786
v -0.897514 2.117434 1.194968
vn -0.152784 0.861203 -0.484755
v -0.073042 2.222206 0.860975
vn -0.024866 0.157505 -0.987205
v -0.260414 -0.244000 0.120002
vn -0.157570 -0.776305 0.610346
v -1.712238 -1.605162 1.514812
vn -0.134760 -0.073349 -0.988160
v -2.367384 -0.897262 0.139039
vn 0.810211 -0.015698 0.585928
v 3.014077 -0.547945 1.758465
vn 0.233549 0.145592 0.961383
v 1.620095 0.060400 1.902879
vn 0.010469 -0.423246 -0.905954
v -1.624006 -1.232019 0.100898
vn -0.357181 0.307244 -0.882056
v -3.105130 0.105634 0.325354
vn 0.526077 -0.788126 0.319530
v 1.914837 -1.559288 1.501740
vn -0.123152 0.226896 -0.966101
v -0.013334 0.767129 0.371578
vn 0.166118 0.236597 0.957302
v 1.029564 0.136036 2.078748
vn -0.058225 -0.658706 -0.750144
v 0.770582 -2.396868 0.656633
vn 0.795010 0.363335 0.485743
v 2.885562 0.869298 1.593257
vn -0.003568 -0.499282 -0.866432
v 1.274542 -2.128475 0.477988
vn 0.630784 -0.773996 0.055159
v 1.942755 -1.744353 1.081802
vn -0.820777 -0.150022 -0.551197
v -3.610776 -0.340692 0.415341
vn 0.012079 0.978741 -0.204743
v 0.763970 2.265660 0.774645
vn -0.132641 -0.630686 0.764619
v -0.546182 -1.662591 1.609235
vn 0.419721 0.506072 -0.753475
v 1.782935 1.845149 0.539949
vn -0.657885 -0.637679 0.400690
v -2.213461 -1.360770 1.581941
vn -0.637681 0.766360 -0.077814
v -2.123521 1.587577 0.955543
vn -0.038905 0.292063 -0.955607
v -1.596968 0.980589 0.421929
vn -0.741846 0.658389 -0.127232
v -3.226340 0.187764 0.543834
vn 0.804882 0.465179 -0.368474
v 2.131100 1.130768 0.483407
vn -0.063976 0.212891 -0.974979
v -1.239528 0.062951 0.350832
vn 0.544937 -0.720552 0.428775
v 1.505276 -1.888937 1.367589
vn 0.165834 -0.700279 0.694340
v 0.952184 -2.107305 1.738398
vn -0.053378 0.317182 0.946861
v -1.736128 0.227723 1.829915
vn -0.536460 0.670462 -0.512534
v -2.516072 1.080544 0.576105
vn -0.196041 0.486109 -0.851626
v -0.350467 1.864981 0.684292
vn -0.124514 -0.942236 0.310945
v 0.628999 -2.491086 1.169922
vn -0.051990 0.221059 -0.973874
v -2.265800 0.478942 0.347531
vn -0.111880 0.322300 0.940003
v -0.885826 0.189379 1.848227
vn -0.120475 -0.161160 0.979547
v -0.258704 -0.501262 2.178883
vn -0.655972 -0.687348 -0.311855
v -2.603840 -1.468182 0.382731
vn -0.305407 -0.816240 0.490386
v 0.115625 -2.274964 1.181663
vn 0.402765 -0.494457 -0.770255
v 2.173715 -1.281906 0.178605
vn 0.087589 0.284065 0.954796
v 0.901442 0.819828 1.807907
vn 0.033642 -0.012496 -0.999356
v 1.013696 -0.301843 0.195318
vn 0.362893 -0.667945 0.649737
v 1.840030 -1.530323 1.738367
vn 0.492934 -0.694385 -0.524257
v 2.481140 -1.128988 0.357798
vn -0.414797 0.375329 0.828898
v -2.213906 0.984772 1.614190
vn -0.741395 -0.359544 0.566624
v -2.531499 -0.727002 1.937609
vn 0.601474 -0.140738 -0.786398
v 2.731503 -0.824946 0.229805
vn 0.051441 -0.455098 -0.888954
v -0.643333 -1.506838 0.427033
vn 0.891938 0.272162 0.361075
v 2.900645 0.424354 1.475750
vn 0.335142 0.809536 0.482007
v 1.831360 1.981448 1.402087
vn 0.546438 -0.826307 0.136464
v 2.512155 -1.288760 1.157416
vn -0.029540 0.408305 0.912367
v -0.691544 1.702532 1.610542
vn 0.073295 0.582499 0.809520
v 1.138906 1.928884 1.520058
vn 0.420712 0.485186 0.766548
v 2.224542 1.318177 1.654932
vn 0.454807 -0.890263 -0.024152
v 1.232157 -2.463358 0.933200
vn 0.292449 -0.010065 -0.956228
v 2.487671 -0.596451 0.157496
vn -0.049590 0.199267 -0.978690
v -0.519211 0.570735 0.329889
vn -0.117989 -0.839943 -0.529693
v -1.019560 -1.963465 0.700318
vn -0.274337 -0.949315 -0.153429
v -0.373559 -2.222427 0.839438
vn -0.274586 -0.922051 -0.272808
v 0.203559 -2.341688 0.868230
vn 0.035161 0.944896 -0.325478
v 1.395708 2.260404 0.824557
vn -0.194063 0.630882 -0.751217
v -1.986868 1.436152 0.651953
vn -0.394531 -0.916496 0.066191
v -2.056177 -1.822450 0.691847
vn -0.008786 -0.435836 0.899983
v -1.000418 -0.993511 1.908890
vn -0.318655 0.934468 0.158836
v -1.360869 1.996615 1.351526
vn -0.176211 -0.472035 0.863790
v 0.227081 -1.770631 1.642391
vn -0.062916 0.348616 -0.935151
v -0.841355 1.264432 0.508444
vn -0.092258 0.377765 -0.921294
v 0.529086 1.410376 0.331728
vn -0.195794 0.677584 -0.708904
v -1.194504 1.813756 0.875720
vn -0.036480 -0.111606 -0.993083
v 1.547627 -1.192120 0.208556
vn 0.300354 0.183240 0.936061
v 2.734571 -0.320243 1.856959
vn 0.921593 0.215293 -0.322978
v 3.019752 -0.399089 0.809845
vn 0.875766 -0.428386 0.222531
v 3.098989 -0.824107 1.431372
vn 0.033975 -0.319575 -0.946952
v -0.194205 -0.942302 0.077051
vn 0.431450 -0.496205 0.753413
v 2.487045 -1.047945 1.907461
# 115 vertices, 0 vertices normals


usemtl material_0
vt 0.169668 0.634326
vt 0.093478 0.651298
vt 0.133329 0.605400
f 16/1/16 17/2/17 72/3/72
vt 0.146027 0.083564
vt 0.109073 0.066271
vt 0.150312 0.046426
f 111/4/111 48/5/48 26/6/26
vt 0.638979 0.604064
vt 0.521026 0.558432
vt 0.620079 0.517521
f 53/7/53 73/8/73 108/9/108
vt 0.465453 0.630563
vt 0.543193 0.640223
f 109/10/109 73/8/73 107/11/107
vt 0.024976 0.296721
vt 0.044933 0.252136
vt 0.058017 0.339857
f 69/12/69 52/13/52 70/14/70
vt 0.509396 0.295213
vt 0.576478 0.284496
vt 0.578546 0.340925
f 92/15/92 43/16/43 105/17/105
vt 0.398146 0.203281
vt 0.344468 0.193416
vt 0.442366 0.116652
f 34/18/34 81/19/81 93/20/93
vt 0.040092 0.453685
vt 0.018488 0.409956
vt 0.066647 0.447141
f 100/21/100 74/22/74 79/23/79
vt 0.818798 0.092791
vt 0.815916 0.142294
vt 0.774302 0.158727
f 95/24/95 57/25/57 38/26/38
vt 0.178369 0.906381
vt 0.239144 0.906658
vt 0.199382 0.945709
f 1/27/1 78/28/78 103/29/103
vt 0.033934 0.658180
vt 0.072468 0.757294
f 85/30/85 17/2/17 24/31/24
vt 0.781344 0.323084
vt 0.826532 0.275856
vt 0.868400 0.297299
f 6/32/6 56/33/56 89/34/89
vt 0.601920 0.398306
vt 0.634094 0.348195
vt 0.661610 0.387402
f 101/35/101 11/36/11 62/37/62
vt 0.243756 0.731538
vt 0.140018 0.750442
vt 0.208138 0.693840
f 3/38/3 19/39/19 66/40/66
vt 0.625529 0.660583
vt 0.712399 0.692086
f 97/41/97 53/7/53 45/42/45
vt 0.717243 0.099690
vt 0.648727 0.184668
vt 0.639402 0.098476
f 58/43/58 84/44/84 91/45/91
vt 0.744972 0.267030
f 94/46/94 56/33/56 6/32/6
vt 0.832575 0.441119
vt 0.739956 0.432165
vt 0.748474 0.390753
f 29/47/29 23/48/23 67/49/67
vt 0.332809 0.042259
vt 0.328614 0.106193
vt 0.236256 0.072432
f 94/50/94 13/51/13 30/52/30
vt 0.020911 0.590248
vt 0.040652 0.557273
vt 0.071671 0.568025
f 27/53/27 105/54/105 64/55/64
vt 0.942404 0.801194
vt 0.972510 0.743383
vt 0.993586 0.763875
f 100/56/100 55/57/55 18/58/18
vt 0.858934 0.360352
f 29/47/29 6/32/6 25/59/25
vt 0.675044 0.966245
vt 0.730778 0.927542
vt 0.753921 0.959198
f 78/60/78 14/61/14 103/62/103
vt 0.269917 0.370810
vt 0.360868 0.509549
vt 0.258732 0.466201
f 77/63/77 36/64/36 104/65/104
vt 0.068198 0.228092
f 52/13/52 83/66/83 70/14/70
vt 0.198759 0.816079
vt 0.134190 0.845450
f 19/39/19 21/67/21 12/68/12
vt 0.075542 0.845530
f 86/69/86 19/39/19 12/68/12
vt 0.124146 0.395917
f 106/70/106 79/23/79 70/14/70
vt 0.760633 0.046467
f 69/71/69 95/24/95 58/43/58
vt 0.124073 0.197851
f 30/52/30 33/72/33 111/4/111
vt 0.693529 0.285490
f 67/49/67 62/37/62 42/73/42
vt 0.634822 0.905588
vt 0.709133 0.865091
f 47/74/47 50/75/50 14/61/14
vt 0.934415 0.388611
f 29/47/29 25/59/25 112/76/112
f 62/37/62 67/49/67 23/48/23
vt 0.377727 0.389253
vt 0.331871 0.316264
f 76/77/76 77/63/77 20/78/20
vt 0.930847 0.293253
vt 0.975778 0.293748
f 26/79/26 48/80/48 112/76/112
vt 0.210306 0.288483
f 77/63/77 31/81/31 20/78/20
vt 0.579085 0.148031
vt 0.558416 0.085445
f 22/82/22 113/83/113 91/45/91
vt 0.872304 0.738383
vt 0.841060 0.667807
vt 0.970015 0.685664
f 5/84/5 32/85/32 57/86/57
vt 0.695529 0.797609
vt 0.621476 0.750429
f 37/87/37 47/74/47 68/88/68
vt 0.376777 0.049603
f 93/20/93 13/51/13 42/89/42
vt 0.911603 0.598662
f 32/85/32 110/90/110 57/86/57
vt 0.799889 0.590944
f 32/85/32 82/91/82 110/90/110
f 1/27/1 12/68/12 21/67/21
f 68/88/68 45/42/45 37/87/37
vt 0.367673 0.590059
vt 0.441479 0.567316
f 86/92/86 36/64/36 24/93/24
vt 0.707424 0.517622
f 53/7/53 108/9/108 15/94/15
vt 0.122851 0.295376
f 33/72/33 31/81/31 9/95/9
vt 0.170046 0.461836
f 61/96/61 106/70/106 77/63/77
vt 0.485098 0.400070
vt 0.423848 0.468453
f 28/97/28 71/98/71 76/77/76
vt 0.854013 0.123680
vt 0.856435 0.087016
f 55/99/55 95/24/95 18/100/18
f 42/73/42 6/32/6 67/49/67
f 21/67/21 78/28/78 1/27/1
vt 0.275315 0.604679
vt 0.320843 0.557223
f 86/92/86 63/101/63 35/102/35
vt 0.230128 0.569723
f 63/101/63 46/103/46 35/102/35
f 78/60/78 47/74/47 14/61/14
vt 0.252679 0.012282
f 94/50/94 30/52/30 56/104/56
vt 0.805330 0.508073
f 8/105/8 23/48/23 29/47/29
f 45/42/45 82/91/82 32/85/32
vt 0.991626 0.334767
f 48/80/48 113/106/113 112/76/112
f 81/19/81 13/51/13 93/20/93
vt 0.900885 0.796314
f 2/107/2 5/84/5 55/57/55
f 100/56/100 2/107/2 55/57/55
vt 0.698928 0.040100
f 69/71/69 58/43/58 52/108/52
vt 0.070524 0.506478
f 99/109/99 100/21/100 79/23/79
vt 0.978606 0.788203
f 100/56/100 18/58/18 74/110/74
f 15/94/15 23/48/23 8/105/8
f 89/34/89 26/79/26 25/59/25
f 106/70/106 70/14/70 9/95/9
f 8/105/8 110/90/110 82/91/82
vt 0.523475 0.724865
f 65/111/65 97/41/97 68/88/68
f 106/70/106 31/81/31 77/63/77
vt 0.261459 0.759912
vt 0.257398 0.832777
f 59/112/59 10/113/10 21/67/21
vt 0.265967 0.218049
f 54/114/54 81/19/81 20/78/20
f 25/59/25 26/79/26 112/76/112
vt 0.140237 0.556045
f 46/103/46 7/115/7 61/96/61
f 66/40/66 17/2/17 16/1/16
f 94/46/94 6/32/6 42/73/42
f 35/102/35 104/65/104 36/64/36
vt 0.559562 0.373204
f 39/116/39 28/97/28 92/15/92
vt 0.602860 0.019383
vt 0.550587 0.053429
f 115/117/115 113/83/113 48/118/48
f 67/49/67 6/32/6 29/47/29
vt 0.827807 0.876742
vt 0.897193 0.844445
f 98/119/98 2/107/2 99/120/99
vt 0.583545 0.947984
f 10/121/10 47/74/47 78/60/78
vt 0.523259 0.812988
vt 0.459016 0.786978
vt 0.454831 0.726784
f 75/122/75 72/123/72 102/124/102
vt 0.011328 0.343144
f 95/125/95 69/12/69 70/14/70
vt 0.504897 0.198673
vt 0.570325 0.186745
f 43/16/43 40/126/40 44/127/44
f 6/32/6 89/34/89 25/59/25
vt 0.234485 0.165321
f 33/72/33 30/52/30 49/128/49
vt 0.217597 0.621869
f 63/101/63 4/129/4 46/103/46
f 45/42/45 53/7/53 15/94/15
f 38/26/38 58/43/58 95/24/95
vt 0.512187 0.977386
vt 0.506008 0.906880
f 59/130/59 51/131/51 10/121/10
f 14/61/14 50/75/50 98/119/98
vt 0.502452 0.059032
vt 0.540326 0.118561
f 93/20/93 101/132/101 60/133/60
vt 0.967244 0.646621
f 110/90/110 38/134/38 57/86/57
vt 0.911898 0.480790
vt 0.957394 0.551850
f 110/90/110 96/135/96 80/136/80
vt 0.806830 0.808716
f 50/75/50 88/137/88 98/119/98
vt 0.214219 0.671635
f 66/40/66 16/1/16 51/138/51
vt 0.473929 0.524306
vt 0.509918 0.469117
f 24/139/24 71/98/71 85/140/85
vt 0.422174 0.048673
f 93/20/93 90/141/90 101/132/101
vt 0.776246 0.730676
f 114/142/114 45/42/45 32/85/32
vt 0.471763 0.837503
f 16/143/16 72/123/72 75/122/75
f 40/126/40 34/18/34 93/20/93
f 75/122/75 65/111/65 68/88/68
f 3/38/3 21/67/21 19/39/19
f 54/114/54 33/72/33 49/128/49
f 115/117/115 91/45/91 113/83/113
f 96/135/96 29/47/29 112/76/112
f 10/121/10 51/131/51 75/122/75
f 72/3/72 17/2/17 64/55/64
f 49/128/49 30/52/30 13/51/13
f 93/20/93 42/89/42 90/141/90
f 20/78/20 81/19/81 34/18/34
f 31/81/31 54/114/54 20/78/20
vt 0.689104 0.195642
f 80/144/80 84/44/84 58/43/58
vt 0.960900 0.487337
f 96/135/96 84/145/84 80/136/80
f 76/77/76 36/64/36 77/63/77
f 110/90/110 80/136/80 38/134/38
f 108/9/108 101/35/101 62/37/62
vt 0.561136 0.446063
f 60/146/60 101/35/101 108/9/108
vt 0.950343 0.465477
f 96/135/96 87/147/87 84/145/84
vt 0.600544 0.189065
f 84/44/84 87/148/87 22/82/22
f 65/111/65 102/124/102 109/10/109
vt 0.417869 0.632007
f 102/124/102 105/149/105 109/10/109
vt 0.189528 0.033806
f 30/52/30 111/4/111 89/150/89
f 30/52/30 89/150/89 56/104/56
f 65/111/65 107/11/107 97/41/97
f 10/113/10 78/28/78 21/67/21
vt 0.559428 0.410758
f 27/151/27 85/140/85 28/97/28
f 52/108/52 58/43/58 91/45/91
vt 0.835530 0.918732
f 7/152/7 103/62/103 98/119/98
vt 0.460106 0.587316
f 109/10/109 43/153/43 73/8/73
vt 0.511679 0.509142
f 43/153/43 44/154/44 73/8/73
vt 0.481436 0.025799
f 101/132/101 90/141/90 11/155/11
f 8/105/8 96/135/96 110/90/110
f 4/129/4 7/115/7 46/103/46
f 7/115/7 79/23/79 61/96/61
vt 0.484155 0.945391
f 66/156/66 51/131/51 59/130/59
vt 0.111322 0.921249
f 12/68/12 63/157/63 86/69/86
vt 0.431034 0.283816
f 76/77/76 20/78/20 41/158/41
f 70/14/70 83/66/83 9/95/9
f 92/15/92 40/126/40 43/16/43
f 44/154/44 60/146/60 108/9/108
f 73/8/73 44/154/44 108/9/108
f 97/41/97 45/42/45 68/88/68
vt 0.379887 0.676514
vt 0.390839 0.657102
f 27/159/27 39/160/39 105/149/105
f 76/77/76 41/158/41 28/97/28
f 99/120/99 2/107/2 100/56/100
vt 0.004298 0.367249
f 74/22/74 18/161/18 95/125/95
f 74/22/74 95/125/95 70/14/70
f 53/7/53 107/11/107 73/8/73
f 13/51/13 54/114/54 49/128/49
f 104/65/104 61/96/61 77/63/77
vt 0.149293 0.936849
f 103/29/103 4/162/4 1/27/1
vt 0.478830 0.986747
f 3/163/3 66/156/66 59/130/59
f 86/92/86 35/102/35 36/64/36
f 75/122/75 102/124/102 65/111/65
f 38/26/38 80/144/80 58/43/58
vt 0.664380 0.290536
f 90/164/90 42/73/42 11/36/11
f 5/84/5 114/142/114 32/85/32
f 40/126/40 93/20/93 60/133/60
f 106/70/106 9/95/9 31/81/31
f 88/137/88 114/142/114 5/84/5
f 98/119/98 88/137/88 2/107/2
f 95/24/95 55/99/55 57/25/57
f 96/135/96 112/76/112 87/147/87
vt 0.670430 0.011299
f 83/165/83 91/45/91 115/117/115
f 39/116/39 92/15/92 105/17/105
f 31/81/31 33/72/33 54/114/54
vt 0.095142 0.148689
f 111/4/111 115/166/115 48/5/48
f 33/72/33 9/95/9 83/66/83
f 5/84/5 57/86/57 55/57/55
f 41/158/41 34/18/34 40/126/40
f 47/74/47 75/122/75 68/88/68
f 12/68/12 1/27/1 63/157/63
f 62/37/62 15/94/15 108/9/108
f 14/61/14 98/119/98 103/62/103
f 75/122/75 47/74/47 10/121/10
f 33/72/33 83/66/83 115/166/115
f 15/94/15 8/105/8 82/91/82
f 37/87/37 45/42/45 114/142/114
f 99/109/99 79/23/79 7/115/7
f 107/11/107 53/7/53 97/41/97
f 98/119/98 99/120/99 7/152/7
f 75/122/75 51/131/51 16/143/16
f 40/126/40 60/133/60 44/127/44
f 24/93/24 36/64/36 71/98/71
f 39/116/39 27/151/27 28/97/28
f 54/114/54 13/51/13 81/19/81
f 71/98/71 36/64/36 76/77/76
f 1/27/1 4/162/4 63/157/63
f 85/140/85 71/98/71 28/97/28
f 105/149/105 43/153/43 109/10/109
f 28/97/28 41/158/41 92/15/92
f 24/31/24 17/2/17 19/39/19
f 47/74/47 37/87/37 50/75/50
f 19/39/19 86/69/86 24/31/24
f 84/44/84 22/82/22 91/45/91
f 11/36/11 42/73/42 62/37/62
f 33/72/33 115/166/115 111/4/111
f 15/94/15 62/37/62 23/48/23
f 17/2/17 85/30/85 27/53/27
f 111/4/111 26/6/26 89/150/89
f 19/39/19 17/2/17 66/40/66
f 92/15/92 41/158/41 40/126/40
f 64/55/64 17/2/17 27/53/27
vt 0.416277 0.696433
f 102/124/102 64/167/64 105/149/105
f 88/137/88 5/84/5 2/107/2
f 65/111/65 109/10/109 107/11/107
vt 0.121708 0.574636
f 72/3/72 64/55/64 102/168/102
f 59/112/59 21/67/21 3/38/3
f 35/102/35 46/103/46 104/65/104
vt 0.979501 0.397579
f 87/147/87 112/76/112 22/169/22
f 41/158/41 20/78/20 34/18/34
f 79/23/79 74/22/74 70/14/70
vt 0.785713 0.985793
f 4/170/4 103/62/103 7/152/7
f 8/105/8 29/47/29 96/135/96
f 15/94/15 82/91/82 45/42/45
f 50/75/50 37/87/37 88/137/88
f 61/96/61 79/23/79 106/70/106
f 37/87/37 114/142/114 88/137/88
f 112/76/112 113/106/113 22/169/22
f 46/103/46 61/96/61 104/65/104
f 42/89/42 13/51/13 94/50/94
f 52/108/52 91/45/91 83/165/83
# 226 faces, 170 coords texture

# End of File
