# www.textures.com
vn -0.142617 -0.518376 -0.843176
v 0.137515 -1.928298 0.623939
vn 0.778611 0.591999 -0.208092
v 2.503254 1.053256 1.107012
vn -0.508667 -0.296269 -0.808383
v -2.947515 -0.751870 0.247483
vn -0.790754 -0.556444 0.255105
v -2.387995 -1.120224 1.166810
vn 0.107429 0.225088 0.968398
v 1.436367 0.503612 1.891023
vn -0.012210 0.115464 -0.993237
v 1.204053 0.413688 0.142145
vn -0.077106 0.267002 0.960606
v -0.104168 0.239391 2.129656
vn -0.898890 -0.117602 0.422097
v -3.048178 -0.166570 1.090158
vn 0.834050 -0.463586 -0.299081
v 3.048803 -0.958827 0.749797
vn -0.499645 0.254389 0.828034
v -2.752271 0.077839 1.792092
vn 0.602229 0.383971 -0.699919
v 2.136712 0.800735 0.175990
vn -0.121955 -0.156493 0.980121
v -1.848957 -0.677846 2.113904
vn -0.478796 0.584686 0.654902
v -1.866565 1.613617 1.502721
vn -0.036990 0.304131 0.951912
v 0.396022 1.126957 1.761538
vn -0.175452 0.963289 0.203202
v -0.897514 2.117434 1.194968
vn -0.047620 -0.120095 -0.991620
v -0.004748 -0.695484 0.062254
vn -0.068481 -0.343025 -0.936827
v -2.012360 -1.320322 0.150233
vn -0.097214 -0.950341 -0.295637
v 0.766440 -2.544873 0.841921
vn 0.210794 -0.587999 -0.780912
v 1.369903 -2.050529 0.431820
vn -0.996112 0.043570 0.076569
v -3.744621 -0.205990 0.569302
vn -0.107520 0.882016 -0.458789
v 0.343013 2.263204 0.787487
vn -0.178764 -0.789135 0.587630
v -0.783027 -1.771672 1.456207
vn 0.421428 0.463978 -0.779181
v 1.782935 1.845149 0.539949
vn -0.483294 -0.706384 0.517155
v -2.108758 -1.476188 1.534706
vn -0.065711 0.296811 -0.952673
v -1.038945 0.972335 0.418676
vn -0.697841 0.557811 -0.449295
v -3.128268 0.260226 0.413250
vn -0.005014 -0.032847 -0.999448
v -1.144191 -0.517889 0.117323
vn 0.664171 -0.741849 0.092397
v 1.916573 -1.754065 1.077769
vn 0.112954 -0.725436 0.678958
v 0.907960 -1.982996 1.717520
vn -0.631532 0.611404 -0.476816
v -2.700429 0.922636 0.522011
vn -0.076520 0.216186 -0.973349
v -2.265800 0.478942 0.347531
vn -0.127206 0.263149 0.956332
v -1.209791 0.266838 1.812147
vn -0.037356 -0.090473 0.995198
v 0.184098 -0.563872 2.241139
vn -0.711789 -0.687986 -0.141529
v -2.603840 -1.468182 0.382731
vn -0.295173 -0.953903 -0.054234
v 0.058782 -2.325168 0.964736
vn 0.507207 -0.627573 -0.590671
v 2.332906 -1.192147 0.241568
vn -0.638182 0.452847 0.622618
v -2.318764 0.918759 1.549805
vn -0.704976 -0.401825 0.584420
v -2.531499 -0.727002 1.937609
vn 0.865156 0.474605 0.162032
v 2.845171 0.729744 1.497436
vn 0.691157 0.636513 0.342276
v 1.933102 1.839790 1.468441
vn 0.530123 -0.799383 0.282766
v 2.166009 -1.418259 1.605522
vn -0.061569 0.346769 0.935928
v -1.157772 1.541722 1.614405
vn 0.017402 0.658960 0.751977
v 0.678180 2.020888 1.516091
vn 0.463281 0.419149 0.780823
v 2.486664 0.965099 1.651662
vn 0.467664 -0.880944 0.072297
v 1.232157 -2.463358 0.933200
vn 0.420826 -0.042149 -0.906162
v 2.599101 -0.715322 0.181740
vn -0.082177 -0.739056 -0.668613
v -0.917456 -1.870188 0.606425
vn 0.287134 0.900082 -0.327728
v 1.664327 2.251189 0.804347
vn -0.471712 0.737043 -0.483999
v -2.197762 1.474370 0.730278
vn -0.377221 -0.924545 -0.054051
v -2.009979 -1.830017 0.714889
vn -0.306394 0.927732 0.213157
v -1.360869 1.996615 1.351526
vn -0.075361 0.337272 -0.938386
v 0.265979 1.330163 0.397470
vn -0.212265 0.621985 -0.753710
v -0.814547 1.839167 0.795238
vn 0.034711 -0.145923 -0.988687
v 1.547627 -1.192120 0.208556
vn 0.738154 0.147575 0.658294
v 2.986329 -0.252740 1.733909
vn 0.921493 0.236495 -0.308094
v 2.959318 -0.145793 0.843696
vn 0.851713 -0.323613 0.412141
v 3.058747 -0.751928 1.662626
vn 0.267813 -0.218325 0.938408
v 2.157264 -1.099423 1.978752
# 58 vertices, 0 vertices normals


usemtl material_0
vt 0.024976 0.296721
vt 0.060941 0.242764
vt 0.075205 0.340288
f 28/1/28 41/2/41 29/3/29
vt 0.515389 0.347114
vt 0.576478 0.284496
vt 0.578546 0.340925
f 42/4/42 15/5/15 51/6/51
vt 0.152537 0.888645
vt 0.239144 0.906658
vt 0.188475 0.944411
f 4/7/4 34/8/34 50/9/50
vt 0.254514 0.744126
vt 0.169900 0.767656
vt 0.209483 0.679614
f 20/10/20 8/11/8 26/12/26
vt 0.559087 0.677250
vt 0.611169 0.545556
vt 0.768523 0.699348
f 25/13/25 52/14/52 16/15/16
vt 0.725985 0.091153
vt 0.668338 0.191188
vt 0.660614 0.040491
f 28/16/28 36/17/36 41/18/41
vt 0.744972 0.267030
vt 0.843916 0.288784
vt 0.781344 0.323084
f 44/19/44 39/20/39 2/21/2
vt 0.020911 0.590248
vt 0.040652 0.557273
vt 0.093575 0.572118
f 13/22/13 51/23/51 49/24/49
vt 0.773641 0.427679
vt 0.909054 0.376771
f 11/25/11 2/21/2 56/26/56
vt 0.675044 0.966245
vt 0.691357 0.900712
vt 0.760983 0.960706
f 34/27/34 17/28/17 50/29/50
vt 0.075542 0.845530
f 38/30/38 8/11/8 4/7/4
vt 0.287046 0.042502
vt 0.106053 0.176234
vt 0.143533 0.056173
f 44/31/44 58/32/58 55/33/55
vt 0.661610 0.387402
vt 0.683778 0.287904
f 11/25/11 23/34/23 40/35/40
vt 0.402722 0.419834
vt 0.242477 0.332568
vt 0.331871 0.316264
f 32/36/32 33/37/33 7/38/7
vt 0.930847 0.293253
vt 0.986911 0.312889
f 55/39/55 57/40/57 56/26/56
vt 0.579085 0.148031
vt 0.555943 0.068729
f 9/41/9 57/42/57 41/18/41
vt 0.894187 0.772085
vt 0.967198 0.668510
f 1/43/1 16/15/16 19/44/19
vt 0.472435 0.156261
vt 0.283125 0.160619
vt 0.393955 0.048880
f 43/45/43 5/46/5 40/47/40
vt 0.911603 0.598662
f 16/15/16 54/48/54 19/44/19
vt 0.753432 0.533152
f 16/15/16 6/49/6 54/48/54
vt 0.367673 0.590059
vt 0.332142 0.521380
vt 0.441479 0.567316
f 38/50/38 12/51/12 10/52/10
f 58/32/58 33/37/33 29/3/29
vt 0.159126 0.509678
f 22/53/22 29/3/29 33/37/33
f 40/35/40 2/21/2 11/25/11
f 8/11/8 34/8/34 4/7/4
vt 0.260984 0.598087
f 38/50/38 24/54/24 12/51/12
vt 0.397628 0.227759
f 14/55/14 5/46/5 43/45/43
vt 0.923925 0.817887
vt 0.983341 0.765268
f 35/56/35 1/43/1 18/57/18
f 39/20/39 55/39/55 56/26/56
vt 0.257398 0.832777
f 20/10/20 3/58/3 8/11/8
f 5/46/5 14/55/14 7/38/7
vt 0.047877 0.660763
vt 0.152784 0.621890
f 26/12/26 37/59/37 30/60/30
f 44/19/44 2/21/2 40/35/40
vt 0.823209 0.856172
f 47/61/47 1/43/1 35/56/35
vt 0.583545 0.947984
f 3/62/3 17/28/17 34/27/34
vt 0.523259 0.812988
vt 0.465219 0.809231
vt 0.437304 0.725116
f 31/63/31 30/64/30 49/65/49
vt 0.011328 0.343144
f 45/66/45 28/1/28 29/3/29
vt 0.557345 0.155162
f 15/5/15 43/45/43 21/67/21
f 2/21/2 39/20/39 56/26/56
f 58/32/58 44/31/44 5/46/5
f 16/15/16 52/14/52 6/49/6
vt 0.798716 0.148983
vt 0.818798 0.092791
f 19/68/19 28/16/28 45/69/45
vt 0.493993 0.985595
vt 0.493554 0.917232
f 20/70/20 26/71/26 3/62/3
vt 0.490089 0.039853
f 43/45/43 48/72/48 21/67/21
vt 0.931025 0.474403
vt 0.957860 0.520488
f 54/48/54 46/73/46 36/74/36
vt 0.473929 0.524306
vt 0.509918 0.469117
f 10/75/10 32/36/32 37/76/37
f 43/45/43 40/47/40 48/72/48
vt 0.676147 0.778509
f 31/63/31 25/13/25 27/77/27
vt 0.602860 0.019383
f 58/78/58 41/18/41 57/42/57
f 46/73/46 11/25/11 56/26/56
f 3/62/3 26/71/26 31/63/31
f 30/60/30 37/59/37 49/24/49
f 33/37/33 5/46/5 7/38/7
f 32/36/32 12/51/12 33/37/33
f 54/48/54 36/74/36 19/44/19
vt 0.618485 0.369662
f 52/14/52 48/79/48 23/34/23
vt 0.538967 0.474050
f 21/80/21 48/79/48 52/14/52
vt 0.600544 0.189065
f 36/17/36 46/81/46 9/41/9
vt 0.491598 0.597469
f 25/13/25 49/65/49 53/82/53
vt 0.417869 0.632007
f 49/65/49 51/83/51 53/82/53
vt 0.224820 0.024789
f 44/31/44 55/33/55 39/84/39
f 3/58/3 34/8/34 8/11/8
vt 0.559639 0.399947
f 13/85/13 37/76/37 42/4/42
vt 0.835530 0.918732
f 22/86/22 50/29/50 47/61/47
vt 0.460106 0.587316
f 15/87/15 21/80/21 53/82/53
f 6/49/6 46/73/46 54/48/54
vt 0.217597 0.621869
f 50/88/50 22/53/22 24/54/24
vt 0.111322 0.921249
f 4/7/4 24/89/24 38/30/38
f 32/36/32 7/38/7 14/55/14
f 42/4/42 43/45/43 15/5/15
f 53/82/53 21/80/21 52/14/52
f 25/13/25 16/15/16 27/77/27
f 32/36/32 14/55/14 42/4/42
vt 0.010131 0.399621
f 18/90/18 45/66/45 29/3/29
f 52/14/52 25/13/25 53/82/53
f 12/51/12 22/53/22 33/37/33
f 31/63/31 49/65/49 25/13/25
f 19/68/19 36/17/36 28/16/28
f 47/61/47 16/15/16 1/43/1
vt 0.856624 0.102495
f 45/69/45 18/91/18 19/68/19
f 13/85/13 42/4/42 51/6/51
f 33/37/33 58/32/58 5/46/5
vt 0.109073 0.066271
f 55/33/55 58/32/58 57/92/57
f 58/32/58 29/3/29 41/2/41
f 1/43/1 19/44/19 18/57/18
f 17/28/17 31/63/31 27/77/27
f 23/34/23 6/49/6 52/14/52
f 17/28/17 47/61/47 50/29/50
f 31/63/31 17/28/17 3/62/3
f 47/61/47 35/56/35 22/86/22
f 31/63/31 26/71/26 30/64/30
f 10/52/10 12/51/12 32/36/32
f 4/7/4 50/9/50 24/89/24
f 37/76/37 32/36/32 42/4/42
f 51/83/51 15/87/15 53/82/53
vt 0.072468 0.757294
f 10/93/10 37/59/37 8/11/8
f 8/11/8 38/30/38 10/93/10
f 36/17/36 9/41/9 41/18/41
f 48/79/48 40/35/40 23/34/23
f 6/49/6 23/34/23 11/25/11
f 8/11/8 37/59/37 26/12/26
f 42/4/42 14/55/14 43/45/43
f 49/24/49 37/59/37 13/22/13
vt 0.979501 0.397579
f 46/73/46 56/26/56 9/94/9
vt 0.055120 0.467580
f 35/95/35 18/90/18 29/3/29
f 6/49/6 11/25/11 46/73/46
f 17/28/17 27/77/27 47/61/47
f 22/53/22 35/95/35 29/3/29
f 27/77/27 16/15/16 47/61/47
f 56/26/56 57/40/57 9/94/9
f 24/54/24 22/53/22 12/51/12
f 40/47/40 5/46/5 44/31/44
# 112 faces, 95 coords texture

# End of File
